# xmcd CD database file
#
# Track frame offsets:
#	150
#	15350
#	30275
#	47100
#	56725
#	73250
#	82262
#	99812
#	114787
#	129300
#	142612
#	156250
#	165800
#	178625
#	194287
#	208650
#	218962
#	227550
#	242775
#	256775
#
# Disc length: 3680 seconds
#
# Revision: 0
# Processed by: cddbd v1.5.2PL0 Copyright (c) Steve Scherf et al.
# Submitted via: CDex 1.51
#
DISCID=fd0e5e14
DTITLE=Various Artist - The Spirit Lives On: Deep South Blues and Spirituals in the 1990s
DYEAR=1994
DGENRE=Blues
TTITLE0=Robert Belfour - Poor Boy Long Way From Home
TTITLE1=Robert Belfour - Old Black Mattie
TTITLE2=Robert Belfour - Catfish Blues
TTITLE3=Robert Belfour - Cotton Pickin' Blues
TTITLE4=David Evans - The Woman I Love
TTITLE5=Mose Vinson - Rock And Roll Blues
TTITLE6=Robert Belfour - I Have Lots Of Bad Luck
TTITLE7=Robert Belfour - Boogie Chillen'
TTITLE8=Robert Belfour - Smokestack Lightnin'
TTITLE9=Big Lucky Carter - Don't Be A Fool
TTITLE10=Big Lucky Carter - Sugar Mama
TTITLE11=Glen Faulkner - Louisiana Blues
TTITLE12=Mose Vinson - You're Not Too Old
TTITLE13=Robert Belfour - Down The Road Of Love
TTITLE14=Robert Belfour - Holding My Pillow Crying
TTITLE15=Glen Faulkner - Glory, Glory, Hallelujah
TTITLE16=Glen Faulkner - Get Right Church And Lets Go Home
TTITLE17=Big Lucky Carter - Swing Low, Sweet Chariot
TTITLE18=Mose Vinson - What Is Your Life?
TTITLE19=David Evans - You've Got To Cross The River Of Jordan
EXTD=YEAR: 1994
EXTT0=
EXTT1=
EXTT2=
EXTT3=
EXTT4=
EXTT5=
EXTT6=
EXTT7=
EXTT8=
EXTT9=
EXTT10=
EXTT11=
EXTT12=
EXTT13=
EXTT14=
EXTT15=
EXTT16=
EXTT17=
EXTT18=
EXTT19=
PLAYORDER=
